<svg id="Layer_1" data-name="Layer 1" xmlns="http://www.w3.org/2000/svg" viewBox="0 0 200 76.94"><defs><style>.cls-1{fill:#0f0432;}.cls-2{fill:#3b9344;}.cls-3{fill:#bb2025;}.cls-4{fill:#df3237;}.cls-5{fill:#f3aa4e;}.cls-6{fill:#fff;}</style></defs><path class="cls-1" d="M84.7,53.3a23.1,23.1,0,0,1-4.44-5.36A23,23,0,0,1,78,29.48a22.56,22.56,0,0,1,2.64-5.73,3,3,0,0,1-.4-.6A23.24,23.24,0,0,0,77.44,29a23.64,23.64,0,0,0,5.15,23.17c.46.49.94,1,1.44,1.43A1.39,1.39,0,0,1,84.7,53.3Z"/><path class="cls-1" d="M122.92,30.31a23.88,23.88,0,0,0-3.31-7.39,6.28,6.28,0,0,0-.35.69,22.88,22.88,0,0,1,3.33,8.31,22.94,22.94,0,0,1-7.34,21.41h.09a1.33,1.33,0,0,1,.69.2l0-.05a23.6,23.6,0,0,0,6.84-23.16Z"/><path class="cls-1" d="M91.84,14.64a23,23,0,0,1,18.34.89,22.71,22.71,0,0,1,5,3.4c.16-.15.34-.29.52-.43a23.89,23.89,0,0,0-5.59-3.72,23.73,23.73,0,0,0-18.3-.86C91.86,14.17,91.86,14.41,91.84,14.64Z"/><path class="cls-2" d="M91.47,16.6c.24.19.47.39.7.59a20.39,20.39,0,0,1,21.47,3.66,8.72,8.72,0,0,1,.87-1.21,6.52,6.52,0,0,0-1.37-1.59c-1-.76-2.43-.8-3.53-1.48a14.56,14.56,0,0,0-2.75-1.72,16.36,16.36,0,0,0-3.13-.19,7.77,7.77,0,0,1-1.91-.49,4.81,4.81,0,0,0-2.27-.36c-1,.13-1.86.61-2.82.79-1.2.23-2.47-.11-3.65.27a5.08,5.08,0,0,0-1.36.77A7.51,7.51,0,0,1,91.47,16.6Z"/><path class="cls-2" d="M122.35,36.07c-.06-1.34-.86-2.52-.92-3.86a11,11,0,0,0-.22-3.09c-.44-1.21-1.52-2.05-2-3.25-.15-.36-.26-.73-.38-1.1-.08.29-.16.61-.24,1s-.16.91-.21,1.37a20.53,20.53,0,0,1,.76,16.23,20.55,20.55,0,0,1-6.05,8.49c-.4.33-.8.64-1.22.94a6.51,6.51,0,0,1,.77,0,1.34,1.34,0,0,1,.7.19l.19.15a1.32,1.32,0,0,1,.44-.08h.17a10.54,10.54,0,0,1,1.41-1.77,16.48,16.48,0,0,0,2.49-2.07,14,14,0,0,0,1.19-3,11.19,11.19,0,0,1,1.4-2.13,4.1,4.1,0,0,0,.71-1.58,25.88,25.88,0,0,0,.09-2.64C121.51,38.6,122.32,37.42,122.35,36.07Z"/><path class="cls-2" d="M87.7,53a1.31,1.31,0,0,1,.55-.13h0a20.67,20.67,0,0,1-4.47-4.24,20.43,20.43,0,0,1-4.06-9.54A20.38,20.38,0,0,1,82.9,24.86h-.15a3,3,0,0,1-1.45-.52,10.3,10.3,0,0,1-.78,2.09c-.42.74-1,1.36-1.44,2.09a3.36,3.36,0,0,0-.43,1.18c-.14.89,0,1.79-.09,2.69-.1,1.34-1,2.54-.88,3.91a17.91,17.91,0,0,0,.78,2.87c.31,1.26-.08,2.6.31,3.85s1.51,2.08,2,3.28a14.31,14.31,0,0,0,1.18,3c.78,1,2.06,1.49,2.89,2.46.38.44.7.95,1,1.42l.19,0a1.3,1.3,0,0,1,.49.1,1.39,1.39,0,0,1,.76-.24A1.5,1.5,0,0,1,87.7,53Z"/><path class="cls-3" d="M74.93,70.81,81.83,69l-.42-2.45-.22,0q-1.09.25-2.16.54l-1.91-8.55L71.69,60l4.84,4.1a.5.5,0,0,1,.23.6Z"/><path class="cls-3" d="M123.54,64.11l4.84-4.1-5.47-1.43L121,67.14l-2.11-.53-.23,0L118.24,69l6.9,1.81-1.82-6.1A.5.5,0,0,1,123.54,64.11Z"/><path class="cls-4" d="M123.32,55.14a92.92,92.92,0,0,0-23.38-3h-.26a92.79,92.79,0,0,0-23,3l-.22,0,2.73,11.62.22-.06a82.09,82.09,0,0,1,20.28-2.61h.35a82.35,82.35,0,0,1,20.52,2.61l.22.06,2.73-11.62Z"/><path id="_Path_" data-name="&lt;Path&gt;" class="cls-1" d="M129.56,59.86,123.2,58.2l.89-3.32a93.5,93.5,0,0,0-24.15-3.16h-.26a92.85,92.85,0,0,0-23.74,3.16l.89,3.33-6.32,1.65,5.84,4.66-2.1,6.93,8.12-2.13-.48-2.7h0a81.45,81.45,0,0,1,36.19,0h.06l-.48,2.69,8.12,2.13-2.11-6.93ZM75.2,70.56l1.73-5.8a.68.68,0,0,0-.31-.8l-4.46-3.89L77,58.8l1.92,8.55c.75-.2,1.53-.39,2.32-.58h0l.34,2.12ZM100.07,64h-.35A82.9,82.9,0,0,0,79.4,66.58l-.05,0L76.7,55.32h0a92,92,0,0,1,22.93-3h.26a93.06,93.06,0,0,1,23.34,3h0L120.68,66.6l-.05,0A82.21,82.21,0,0,0,100.07,64Zm24.8,6.6-6.42-1.68.34-2.11h0c.78.18,1.54.38,2.28.57L123,58.79l4.87,1.28L123.46,64a.67.67,0,0,0-.31.8Z"/><path class="cls-4" d="M80.79,16.91A3.45,3.45,0,0,1,81,12.27s.38,1.3.7,1.27,1-2.48,2.57-2.86a7.82,7.82,0,0,1,1.86-.34s-1.55,1.48-.76,2.53,1.34-1.27,2.52-1.37l1.19-.11a7.18,7.18,0,0,0-.5,2.55c.21.54,2.22-.31,2.22-.31s-.21,2.9-.7,3.28-1.21-.38-1.91-.77S85,15,83.94,15.71a1.63,1.63,0,0,0-.53,1.94A3.17,3.17,0,0,0,80.79,16.91Z"/><path class="cls-4" d="M83.6,18.27a2.54,2.54,0,0,0,1.92.35c1.23-.2,1.61.26,1.61,1.07S86.19,21,86.19,21,87,22.44,86,23.38a1.61,1.61,0,0,1-2.1,0,1.79,1.79,0,0,1-2.76-.84,5.67,5.67,0,0,1-.2-3,1.86,1.86,0,0,1,1.32-.47A2.93,2.93,0,0,1,83.6,18.27Z"/><path class="cls-5" d="M83.41,17.93s-3.18-2.6-4,1.45a.78.78,0,0,0,.86.24c.56-.18,1.34-.86,1.93-.67Z"/><g id="_1" data-name="1"><path class="cls-1" d="M123.8,22.93a3.82,3.82,0,0,0-3.92-2.9h0a3.07,3.07,0,0,0-.52.06,3.15,3.15,0,0,0-1.41.82,6.9,6.9,0,0,0-1.53,2.39,11.63,11.63,0,0,0-.73,3,25.27,25.27,0,0,0-.11,5.36c.12,1.87.32,3.73.5,5.59a11.42,11.42,0,0,1,.09,2.48,5.82,5.82,0,0,1-.61,2.07,2.83,2.83,0,0,0,.68-.38,3.4,3.4,0,0,0,.94-1,3.83,3.83,0,0,0,.61-1.8,13.85,13.85,0,0,0-.06-2.23c-.13-1.92-.27-3.83-.33-5.74a23.71,23.71,0,0,1,.33-5.12c.32-1.41,1.06-4.26,3-4.6h0l.09,0,.29,0c1.71,0,2.69,2,2.69,2a.06.06,0,0,0,0,0Z"/><path class="cls-1" d="M117.37,18.61a3.85,3.85,0,0,1,2.55-.1,2.53,2.53,0,0,1,1.32,1.39,3.21,3.21,0,0,0-2.26-.73,2.64,2.64,0,0,0-1.38.62,7.16,7.16,0,0,0-1.76,2.55,18.56,18.56,0,0,0-1.28,5.79c-.08,1.06-.1,2.13-.08,3.2s.07,2.1.16,3.15c.21,2.45.51,4.9.69,7.36a6.14,6.14,0,0,1-.5,3.11,9.75,9.75,0,0,1-1.7,2.51,7.42,7.42,0,0,1-2.32,1.64,8.67,8.67,0,0,1-3.86.68,9.45,9.45,0,0,1-4.62-1.45,6.3,6.3,0,0,1-1.07-.86,9,9,0,0,0,5,1.16,4.53,4.53,0,0,0,2-.49,4.27,4.27,0,0,0,1.85-1.91,3.92,3.92,0,0,0,.27-2.06c-.21-2.74-.89-5.41-1.33-8.11a18.89,18.89,0,0,1-.14-6.32,11.55,11.55,0,0,1,.79-2.71,9.82,9.82,0,0,1,1.43-2.28,5,5,0,0,1,1.28-1.06,12.3,12.3,0,0,0-1.55,5.4,20.27,20.27,0,0,0,.15,4.12c.2,2,.57,4,.85,6,.09.71.2,1.41.28,2.12a18.19,18.19,0,0,1,.1,3,4.78,4.78,0,0,1-.75,2.23,7.62,7.62,0,0,1-1.86,1.94,7.71,7.71,0,0,0,2.22-1.33,4.68,4.68,0,0,0,1.55-3,15.1,15.1,0,0,0-.15-3.55c-.18-1.71-.37-3.42-.53-5.13a43.57,43.57,0,0,1-.2-7.31A16.72,16.72,0,0,1,114,22a8.43,8.43,0,0,1,1.72-2.34A4.6,4.6,0,0,1,117.37,18.61Z"/><path class="cls-1" d="M109.07,22.43a.38.38,0,0,1,.51,0,.66.66,0,0,1,0,.55,3.23,3.23,0,0,1-.21.62c0-.13,0-.28-.12-.38s-.26,0-.35.08a.8.8,0,0,0-.36.69c0,.1.14.14.23.16a3.56,3.56,0,0,1,.86.11c.16.06.15.25.12.39a4.14,4.14,0,0,1-.72,1.53,4.56,4.56,0,0,0-.77,1.83,10.61,10.61,0,0,0-.11,1.12,6.32,6.32,0,0,1,.17-2c.17-.72.64-1.31.87-2a1.44,1.44,0,0,1-.77,0,.62.62,0,0,1-.33-.56,3.13,3.13,0,0,1,.31-1.38A2.07,2.07,0,0,1,109.07,22.43Z"/><path class="cls-1" d="M83.84,10.55a4.32,4.32,0,0,1,2.76-.37,3.27,3.27,0,0,0-1,1.44,1.52,1.52,0,0,0,0,1.07,5.56,5.56,0,0,0,1.32-1.1,3.31,3.31,0,0,1,2.76-.46c-.24.51-.45,1-.64,1.56a4.12,4.12,0,0,0-.28,1.2,3.17,3.17,0,0,0,1-.15A13.31,13.31,0,0,0,91,13.28a7.36,7.36,0,0,1-.58,3.62,9.92,9.92,0,0,1,2.7,2.74,7.33,7.33,0,0,1,.84,1.59,17.15,17.15,0,0,1,.73,2.34c.33,1.4.55,2.82.74,4.24.15,1,.23,2,.38,3,.17,1.23.34,2.45.61,3.66a10.41,10.41,0,0,0,.51,1.73,5.42,5.42,0,0,1,.94-2.72A3.79,3.79,0,0,1,100,32a1.66,1.66,0,0,1,.91,0,1,1,0,0,1,.59.52,3.59,3.59,0,0,1,.3,1.65,10.75,10.75,0,0,1-1.68,5.7,10.56,10.56,0,0,1-2,2.29A2.63,2.63,0,0,0,99.5,44a1.81,1.81,0,0,0,1.29.16,1.77,1.77,0,0,0,.89-.84,4.59,4.59,0,0,0,.35-1c.13-.41.17-.84.27-1.26a7.86,7.86,0,0,1,.42-1.77.72.72,0,0,1,.46-.47,1,1,0,0,1,.52.28c.38.46.36,1.11.69,1.59a.59.59,0,0,0,.42.32.76.76,0,0,0,.66-.44,2.58,2.58,0,0,0,.28-1.16,11.4,11.4,0,0,0-.2-2.33,1.06,1.06,0,0,1,0-.68,1.39,1.39,0,0,1,.26.44c.28.76.54,1.54.78,2.33a3.62,3.62,0,0,0,.63-2.05,10.23,10.23,0,0,0,0-2.07,3.29,3.29,0,0,1,0-.83,2.72,2.72,0,0,1,.54,1,14.32,14.32,0,0,1,.69,2.8,5.25,5.25,0,0,1-.26,2.83,1.78,1.78,0,0,1-1.1,1,3.48,3.48,0,0,1-.38,1.55.75.75,0,0,1-.7.4,1.86,1.86,0,0,1-1.27-.8,3.63,3.63,0,0,1-.43-.94c-.06-.14-.16-.31-.33-.3s-.29.24-.39.39a6.94,6.94,0,0,0-.57,1.66,10.22,10.22,0,0,1-.39,1.54,1.9,1.9,0,0,1-.68.94,1.82,1.82,0,0,1-1.58.06A3.63,3.63,0,0,1,98.71,45a7.22,7.22,0,0,1-1.12-2.46,14,14,0,0,1-1.81,1.12,9.62,9.62,0,0,1-.38,3.66,4,4,0,0,1-1.3,1.94,3,3,0,0,1-2,.56,7.25,7.25,0,0,1-2.52-.74,18.45,18.45,0,0,1-3.19-1.91,11.55,11.55,0,0,0,3.08,1A5.26,5.26,0,0,0,92,48a4.85,4.85,0,0,0,1.33-.75A5.56,5.56,0,0,0,95.2,44a3.93,3.93,0,0,1-2.07,0A1.82,1.82,0,0,1,92,42.81a3.9,3.9,0,0,1,0-2.22,2.44,2.44,0,0,1,.93-1.45,1.54,1.54,0,0,1,1.72.07,3.27,3.27,0,0,1,1,2,7.41,7.41,0,0,0,1.55-.87c-.12-.93-.23-1.87-.29-2.81a4.37,4.37,0,0,1-1.43-2,17.5,17.5,0,0,1-.93-3.84c-.2-1.16-.32-2.33-.48-3.5s-.29-2.24-.52-3.35a23.25,23.25,0,0,0-.81-3.08,9.85,9.85,0,0,0-2.18-3.65,7.46,7.46,0,0,0-2.83-1.79A5.75,5.75,0,0,0,84.91,16a1.74,1.74,0,0,0-1.06.55,1.31,1.31,0,0,0-.13,1.35.72.72,0,0,0,.57.38,5,5,0,0,0,1.49-.07,1.63,1.63,0,0,1,1.33.36,1.54,1.54,0,0,1,.26,1.32,2,2,0,0,1-.92,1.33,2.26,2.26,0,0,1,.29,1.62,1.5,1.5,0,0,1-1,1.09A2.33,2.33,0,0,1,84,23.67a1.58,1.58,0,0,1-1.13.3A2.28,2.28,0,0,1,81,22.69a3.42,3.42,0,0,1-.27-1.09,8.54,8.54,0,0,1,0-1.75,2.33,2.33,0,0,1-1.51.22,2.11,2.11,0,0,1-.21-1.44,2.48,2.48,0,0,1,1.37-1.76,3.72,3.72,0,0,1-.73-2.71,4.77,4.77,0,0,1,1.59-2.68,6.85,6.85,0,0,0,.37,1.73c.18-.3.28-.63.45-.93A4.07,4.07,0,0,1,83.84,10.55Zm.26.62A3.77,3.77,0,0,0,82.48,13a1.8,1.8,0,0,1-.48.78.48.48,0,0,1-.6,0,1.69,1.69,0,0,1-.47-.87,3.43,3.43,0,0,0-.64,1.68,3.15,3.15,0,0,0,.69,2.1l.24-.05a2.35,2.35,0,0,1,.45-1.05,2.48,2.48,0,0,0,0,1.05l.18,0a1.66,1.66,0,0,1,.29-.82,1.73,1.73,0,0,0,.13.9,3.24,3.24,0,0,1,.71.38,1.84,1.84,0,0,1,.84-1.55,3.77,3.77,0,0,1,2-.35,9.9,9.9,0,0,1,4,1.37,6,6,0,0,0,.52-2.39,5.48,5.48,0,0,1-1.33.31.85.85,0,0,1-.74-.25,1,1,0,0,1-.14-.78,9.14,9.14,0,0,1,.57-1.82,2.19,2.19,0,0,0-1.6.61,5.58,5.58,0,0,1-1,.88.82.82,0,0,1-.74.12,1,1,0,0,1-.48-.68,2.39,2.39,0,0,1,.27-1.79A4,4,0,0,0,84.1,11.17Zm-3.73,6.57a2,2,0,0,0-.64,1.52A4.6,4.6,0,0,1,83,18.06,2.22,2.22,0,0,0,82,17.34,1.69,1.69,0,0,0,80.37,17.74Zm-.25,1.64a9.19,9.19,0,0,0,1.1-.52,1.59,1.59,0,0,1,1,0,3,3,0,0,1,.42-.45A4,4,0,0,0,80.12,19.38Zm2.66-.13a.47.47,0,0,0-.12.34,7.84,7.84,0,0,0,.46,2.2,2.55,2.55,0,0,0,.81,1.13,2.38,2.38,0,0,0,1.24.46,1.09,1.09,0,0,0,.9-.5,1.66,1.66,0,0,0,.1-1.36,3.89,3.89,0,0,0-1-1.57,5.28,5.28,0,0,0-1.33-1,1.22,1.22,0,0,1,.54.12,7.16,7.16,0,0,1,1.76,1.53,1.34,1.34,0,0,0,.61-.89c0-.26.09-.59-.15-.77a1.52,1.52,0,0,0-1.11-.15,2.82,2.82,0,0,1-2-.2A2.64,2.64,0,0,0,82.78,19.25Zm-1.58.39a7.7,7.7,0,0,0,.17,2.44,2.09,2.09,0,0,0,1.25,1.33.87.87,0,0,0,.79-.14,3.47,3.47,0,0,1-.64-1.08,7.44,7.44,0,0,1-.38-2.61,2.67,2.67,0,0,0-.68-.15A1.42,1.42,0,0,0,81.2,19.64ZM99.66,35a3.13,3.13,0,0,0-1.78,1.89,8.18,8.18,0,0,0-.18,3,11.93,11.93,0,0,0,3.38-5A1.81,1.81,0,0,0,99.66,35Z"/><path class="cls-1" d="M84,24.11a3,3,0,0,1,.75,2.44,14.09,14.09,0,0,1-1.15,4,7.55,7.55,0,0,0-.44,3.71,2.19,2.19,0,0,1,1.41-1.11,2,2,0,0,1,1.52.28,2.68,2.68,0,0,1,1.11,1.7,6.41,6.41,0,0,1,.12,1.58,5.67,5.67,0,0,1-.17,1.84,1.67,1.67,0,0,1-.73,1.06,1.48,1.48,0,0,1-1.36,0,3.22,3.22,0,0,1-1.17-1.06,5.91,5.91,0,0,1-.74-1.38,5.2,5.2,0,0,0,.06,3.24,4.75,4.75,0,0,0,1.52,2.07,3.52,3.52,0,0,0,2.19.71,2,2,0,0,0,1.38-.65,4.42,4.42,0,0,0,.93-1.92,20.84,20.84,0,0,0,.49-3.43,4.18,4.18,0,0,1,1-2.38,4.4,4.4,0,0,1,1.23-1A1.86,1.86,0,0,1,93,33.46a.58.58,0,0,1,.5.41c.11.43.19.88.3,1.31A4.07,4.07,0,0,1,94,36c-.25-.08-.45-.28-.71-.31a1.53,1.53,0,0,0-1,.16,2.59,2.59,0,0,0-1.18,1,4.62,4.62,0,0,0-.53,2c-.07.78-.08,1.56-.09,2.33A13.94,13.94,0,0,1,90.4,43a3.28,3.28,0,0,1-.92,1.89,2.36,2.36,0,0,1-1.42.62,4.22,4.22,0,0,1-2.42-.69A7.19,7.19,0,0,1,84,43.18a7.88,7.88,0,0,1-1.64-5.25,11.16,11.16,0,0,1,.22-1.83.52.52,0,0,0,0-.3,7,7,0,0,1-.26-3.36,14.25,14.25,0,0,1,.89-3.14c.21-.55.46-1.09.62-1.65a7,7,0,0,0,.35-2.57A5.37,5.37,0,0,0,84,24.11ZM83.63,36a3.78,3.78,0,0,0,1.19,1.41,1.12,1.12,0,0,0,1.12,0,1.9,1.9,0,0,0,.84-1,2.29,2.29,0,0,0-1.47-1.09A2.2,2.2,0,0,0,83.63,36Z"/><path class="cls-1" d="M84.81,29.25l1.89-.74.57,1.39,1.38-.54c.27.63.53,1.27.79,1.91L87.55,32,87,30.62l-1.38.54C85.33,30.52,85.07,29.88,84.81,29.25Z"/><path class="cls-1" d="M84.93,16.49a.92.92,0,0,1,.65.5.78.78,0,0,1-.36,1,.87.87,0,0,1-1.13-.24,1,1,0,0,1-.15-.54.69.69,0,0,0,.87-.07A.63.63,0,0,0,84.93,16.49Z"/></g><g id="_3" data-name="3"><path class="cls-1" d="M87.86,24.63c.14-.17.4-.11.57,0a1.77,1.77,0,0,1,.86.87.9.9,0,0,1-.24.64L88.43,26a2.09,2.09,0,0,1-.74.82c-.17.12-.41.17-.53.36A4.32,4.32,0,0,0,89.29,27a3,3,0,0,1-1.59.68c-.21,0-.47,0-.62-.15a.61.61,0,0,1,.19-.7,4.59,4.59,0,0,0,1-.83c-.19-.06-.43-.1-.51-.3a1,1,0,0,1,.09-.62C87.81,24.94,87.75,24.76,87.86,24.63Zm0,.82a.87.87,0,0,0,.52.19.73.73,0,0,0-.13-.5C88.06,25.1,88,25.31,87.86,25.45Zm.73-.25c0,.16,0,.32,0,.47a4.86,4.86,0,0,0,.55.07A1,1,0,0,0,88.59,25.2Z"/><path class="cls-1" d="M105.49,26.58a.56.56,0,0,1,.68.43.55.55,0,0,1-.92.57,3.75,3.75,0,0,0-.35,1.31,5.74,5.74,0,0,1-.66,2.14,3.6,3.6,0,0,0-.37-2.32,1.32,1.32,0,0,0-.32-.45c-.17,0-.35.15-.52.08a.65.65,0,0,1-.2-1.08.56.56,0,0,1,.64,0,1.76,1.76,0,0,1,.69.79,4.63,4.63,0,0,1,.39,1.21,18.46,18.46,0,0,1,.38-1.94A1,1,0,0,1,105.49,26.58Z"/><path class="cls-1" d="M99.27,27.51a.81.81,0,0,1,.57-.27.35.35,0,0,1,.29.34,2.5,2.5,0,0,1-.39,1.52,4.7,4.7,0,0,1-1.52,1.32,13.46,13.46,0,0,1-1.77.71.67.67,0,0,1,.14-.15,17.74,17.74,0,0,0,3-2,1.14,1.14,0,0,1-.62-.58A1,1,0,0,1,99.27,27.51Zm0,.47a1.2,1.2,0,0,0,.55.41c0-.19,0-.43-.1-.57S99.37,27.89,99.24,28Z"/><path class="cls-1" d="M92,30.43c.24-.17.53,0,.79,0a1.39,1.39,0,0,1-.49.58c-.9.38-1.73.93-2.65,1.27-.32.12-.64.23-1,.33.76-.44,1.5-.92,2.21-1.43C91.3,30.94,91.66,30.67,92,30.43Z"/><path class="cls-1" d="M104.27,32.62a2.73,2.73,0,0,1,1.39.06,7.09,7.09,0,0,1,0,1c0,.18-.14.3-.23.43a15,15,0,0,1-1.29,1.46c.31-.63.65-1.24,1-1.87a2,2,0,0,0-1.32.34,1.29,1.29,0,0,0-.45.69,3.23,3.23,0,0,1,.26-1.69A1.09,1.09,0,0,1,104.27,32.62Z"/><path class="cls-1" d="M86,41.38A3,3,0,0,1,86.5,40a8.86,8.86,0,0,0-.26,1.61.35.35,0,0,0,.24.32c.22,0,.34-.2.47-.34a1.11,1.11,0,0,1,.08.67.55.55,0,0,1-.5.38.46.46,0,0,1-.36-.26A1.62,1.62,0,0,1,86,41.38Z"/><path class="cls-1" d="M107.86,44.47a2.39,2.39,0,0,1,.15-.37,1,1,0,0,1,.16.89c0,.11-.06.24-.17.29a.89.89,0,0,1-.58,0,1.13,1.13,0,0,1-.51.46c-.23.1-.49,0-.73,0a2.1,2.1,0,0,0-1.09.74,2.83,2.83,0,0,1-.77.69,1.43,1.43,0,0,1-1.09-.09,1.46,1.46,0,0,0,1.14-.15,9.33,9.33,0,0,0,.94-1.14,1.71,1.71,0,0,1,.93-.63c.26,0,.55.11.8,0s.21-.57.47-.74c0,.14,0,.27,0,.41a2.74,2.74,0,0,0,.5,0C108,44.66,107.9,44.56,107.86,44.47Z"/><path class="cls-1" d="M90.92,45.44a1,1,0,0,1,.64-.66c.28-.06.66.08.68.4a1.3,1.3,0,0,1-.51,1A3.33,3.33,0,0,1,90,47a10.38,10.38,0,0,0,1.51-1,.35.35,0,0,0,.06-.47A.73.73,0,0,0,90.92,45.44Z"/><path class="cls-1" d="M97,46a.48.48,0,0,1,.51-.24.42.42,0,0,1,.28.39,2.23,2.23,0,0,1-.3,1.18,1.45,1.45,0,0,1,.88-.49c.17,0,.4.13.42.32a1,1,0,0,1-.44.7,2.79,2.79,0,0,1-1.7.48,1.83,1.83,0,0,1-.94-.42,5.78,5.78,0,0,0,1.1,0c.22,0,.37-.22.48-.39s.16-.51.24-.76a.43.43,0,0,0-.19-.52c-.18,0-.31.13-.44.23A.79.79,0,0,1,97,46Zm1,1.3a2.25,2.25,0,0,0-.73.53,3.28,3.28,0,0,0,1.1-.43C98.34,47.27,98.21,47.18,98.08,47.25Z"/></g><path class="cls-6" d="M80.18,56.92l.14-.3.31.21-.14.32L80.18,57l-.13.29L79.74,57l.15-.32Zm1.35,2-.19,0a.23.23,0,0,1-.22,0,1.48,1.48,0,0,1-.17-.42.13.13,0,0,0,0-.09l-.17.43,0,0a1.51,1.51,0,0,1-.45-.07.18.18,0,0,1-.14-.12s0-.24.09-.61a.63.63,0,0,1,.37-.41l.14-.07-.07-.24.2-.35.23,1.28c0,.13.07.19.15.17l.22-.05Zm-.66-.68c-.08-.32-.12-.48-.13-.49a1.21,1.21,0,0,0-.48.47l.32.11a.41.41,0,0,0,.19,0C80.85,58.37,80.89,58.34,80.87,58.29Z"/><path class="cls-6" d="M82.79,58.71,81.44,59l-.09-.53.91-.19s0,0,0-.07a.68.68,0,0,0-.11-.2.67.67,0,0,0-.19-.21l.18-.48a1.52,1.52,0,0,1,.29.45,2.84,2.84,0,0,1,.15.44l.11,0Zm-.57.73.13-.3.32.22-.15.31-.3-.2-.14.29-.31-.21.15-.32Z"/><path class="cls-6" d="M83.91,58.09c0,.26,0,.4,0,.41l-1.17.22-.09-.52.91-.17s0,0,0-.07a.82.82,0,0,0-.13-.23q-.14-.19-.15-.18l.16-.49a1.28,1.28,0,0,1,.3.46A2.53,2.53,0,0,1,83.91,58.09Zm-.57-1.76s-.08,0-.18,0H83.1a.17.17,0,0,0-.06.09.21.21,0,0,0,0,.12,0,0,0,0,0,0,0c0,.05.1.06.21,0l.09,0,.2-.11v.25l-.2.11a2.3,2.3,0,0,0-.2.22l-.1.13s0,0,0,0A.38.38,0,0,1,83,57l0-.13s0,0-.09,0a.17.17,0,0,1-.09-.06.71.71,0,0,1,.06-.44c.06-.17.14-.26.23-.28h.19Z"/><path class="cls-6" d="M84.64,58l-.22.58-.31-2.16.22-.52Z"/><path class="cls-6" d="M86.17,58.12l-.15.07-.23.1a1.08,1.08,0,0,1-.35.11.31.31,0,0,1-.27-.06s-.09-.11-.11-.26,0,0,0-.1a1,1,0,0,1,0-.2c0-.09,0-.15,0-.18s0-.05,0-.06h0l0,.12c0,.12,0,.19.1.21a.5.5,0,0,0,.21,0l.12,0a.47.47,0,0,0,.17-.07c.14,0,.21-.09.21-.11a2.19,2.19,0,0,0-.15-.39,1.42,1.42,0,0,0-.24-.34l.13-.45A1.35,1.35,0,0,1,86,57a3.13,3.13,0,0,1,.19.61l.11,0,.07.53-.14,0Zm-1-2.42.43.13-.09.42-.43-.13Z"/><path class="cls-6" d="M88,57.85h-.1a.8.8,0,0,1-.68-.18l-.17.14a1.45,1.45,0,0,1-.55.24l-.28,0-.06-.53.36,0a1.3,1.3,0,0,0,.44-.17l0,0s-.06-.09-.15-.16a.4.4,0,0,0-.2-.08.48.48,0,0,0-.18.06,1.82,1.82,0,0,1,.07-.3.9.9,0,0,1,.12-.3.67.67,0,0,1,.34-.16.71.71,0,0,1,.2,0,.69.69,0,0,1,.19.1.51.51,0,0,1,.13.12.5.5,0,0,1,0,.16,1.31,1.31,0,0,1-.12.48.45.45,0,0,0,.41.08h.09Zm-1.34-2.37.44.13L87,56l-.43-.14Z"/><path class="cls-6" d="M88.75,55.76l-.07.29.18,1.64-.07.06-.87.11-.06-.53.65-.08-.15-1.31-.09-.34.26-.33.07.34Z"/><path class="cls-6" d="M89.62,57.29l-.24.56-.23-2.17.25-.51Z"/><path class="cls-6" d="M92.15,57.21v.11s0,.07,0,.08l-.16.07-.23.08a1.35,1.35,0,0,1-.36.09.32.32,0,0,1-.26-.08c-.06,0-.09-.12-.1-.27a.22.22,0,0,1,0-.09V57a1.55,1.55,0,0,1,0-.18s0-.05,0-.05h0l0,.12c0,.12.05.19.1.22a.39.39,0,0,0,.21,0l.12,0a.45.45,0,0,0,.17,0c.15-.05.22-.08.21-.1a1.64,1.64,0,0,0-.13-.39,1.18,1.18,0,0,0-.22-.36l.16-.45a1.68,1.68,0,0,1,.26.49A3.44,3.44,0,0,1,92.15,57.21Z"/><path class="cls-6" d="M92.87,57l-.25.55-.17-2.17.26-.5Z"/><path class="cls-6" d="M94.56,57.9c-.17.43-.39.65-.65.67a.77.77,0,0,1-.45-.17,1.48,1.48,0,0,1-.26-.21,1,1,0,0,1-.2-.31,1,1,0,0,0,.31.15,1.08,1.08,0,0,0,.34,0,1,1,0,0,0,.37-.15,1.14,1.14,0,0,0,.34-.29,1.79,1.79,0,0,0,.16-.37h-.06A1.29,1.29,0,0,1,94,57.2c-.17-.05-.26-.14-.27-.24a2,2,0,0,1,.13-.89c.1-.23.2-.35.31-.36s.25.11.37.36a1.89,1.89,0,0,1,.2.61h.09l0,.54h-.12A2.28,2.28,0,0,1,94.56,57.9Zm-.09-1.2a.58.58,0,0,0-.11-.2.53.53,0,0,0-.16-.17.27.27,0,0,0-.12,0l-.06,0a.18.18,0,0,0,0,.07.36.36,0,0,0,0,.09.27.27,0,0,0,0,.09c0,.06.07.1.2.13l.26,0S94.47,56.73,94.47,56.7Z"/><path class="cls-6" d="M95.94,57.16a.83.83,0,0,1-.35,0,1.14,1.14,0,0,1-.3-.17.29.29,0,0,1-.3.26h-.21l0-.54c.38,0,.57,0,.59-.08s.06-.16.11-.28a1.38,1.38,0,0,1,.22-.44.34.34,0,0,1,.27-.17.18.18,0,0,1,.16.1,1.55,1.55,0,0,1,.17.42q.06.24.09.39h.1l0,.54h-.23l-.08,0A.54.54,0,0,1,95.94,57.16Zm.12-.54a.72.72,0,0,0-.08-.27q-.08-.16-.21-.15a.16.16,0,0,0-.09,0,.46.46,0,0,0-.13.12c0,.06-.06.1,0,.13s0,0,0,0l.14.07a.79.79,0,0,0,.22,0H96S96.06,56.65,96.06,56.62Zm1.45.48-1.13,0,0-.53.6,0-.09-1.65.29-.31.1,2h.22Z"/><path class="cls-6" d="M98.41,55.11l-.1.28L98.37,57l-.07.05-.88,0,0-.54h.65l0-1.31-.07-.36.28-.29,0,.35Z"/><path class="cls-6" d="M100.1,55.57l.1.13.32.28c.15.13.23.22.23.28a.89.89,0,0,1-.06.36.86.86,0,0,1-.13.26,1.09,1.09,0,0,1-.29.2,1,1,0,0,1-.45.14.33.33,0,0,1-.24-.1.36.36,0,0,1-.1-.27A2.31,2.31,0,0,1,100.1,55.57Zm.32,1a2.84,2.84,0,0,0-.5-.47.52.52,0,0,0-.11.17.59.59,0,0,0-.1.28.14.14,0,0,0,0,.06.27.27,0,0,0,.25.11.92.92,0,0,0,.28,0C100.36,56.63,100.41,56.6,100.42,56.57Zm-.24-1.51.18-.26.28.27-.2.28-.27-.26-.17.26-.28-.27.2-.28Z"/><path class="cls-6" d="M102.2,56.77a1.76,1.76,0,0,1-.21.9c-.19.32-.38.48-.56.47a.6.6,0,0,1-.43-.25,1.62,1.62,0,0,1-.28-.51l.08,0,.14.09.11.06.12,0h.14a.64.64,0,0,0,.49-.32,1.13,1.13,0,0,0,.2-.39c0-.14-.12-.32-.35-.57l.19-.48.16.19a1,1,0,0,1,.11.2.66.66,0,0,1,.07.25A2.46,2.46,0,0,1,102.2,56.77Z"/><path class="cls-6" d="M103.28,57.14h-.47c-.1,0-.18,0-.21-.08a.39.39,0,0,1-.06-.23V55l.3-.31v1.83c0,.08,0,.12.09.13h.35Z"/><path class="cls-6" d="M105.64,57.25l-2.45-.12V56.6l1.62.08a.69.69,0,0,0-.12-.16,2.29,2.29,0,0,0-.27-.27.49.49,0,0,0-.32-.14,1.1,1.1,0,0,0-.42.1,2,2,0,0,1,.17-.29.46.46,0,0,1,.42-.15,1,1,0,0,1,.67.43c.09.11.19.21.28.3a1.25,1.25,0,0,0,.34.22h.08Zm-1.37.27.41.22-.15.39-.41-.22Z"/><path class="cls-6" d="M106.92,57.35l-1.38-.1,0-.53.93.07s0,0,0-.06a.81.81,0,0,0-.07-.23,1,1,0,0,0-.14-.26l.26-.41a1.21,1.21,0,0,1,.19.51,2.19,2.19,0,0,1,.07.47h.11Zm-.63-2.12.19-.25.27.3-.21.26-.25-.27-.19.24-.26-.29L106,55Z"/><path class="cls-6" d="M108,55.46l-.12.27-.07,1.64-.07.05-.88-.08,0-.53.65.06,0-1.31,0-.36.31-.26,0,.34Z"/><path class="cls-6" d="M109.63,56.09a.83.83,0,0,0,.09.15l.3.3c.14.15.21.25.21.31a1,1,0,0,1-.09.35.7.7,0,0,1-.15.24,1.26,1.26,0,0,1-.3.17,1.06,1.06,0,0,1-.46.09.35.35,0,0,1-.24-.12.44.44,0,0,1-.08-.28A2.31,2.31,0,0,1,109.63,56.09Zm.24,1s-.14-.2-.46-.52a.69.69,0,0,0-.13.16.56.56,0,0,0-.11.27.13.13,0,0,0,0,.06.3.3,0,0,0,.25.14.69.69,0,0,0,.28,0C109.81,57.17,109.86,57.14,109.87,57.12Zm-.12-1.53.19-.24.26.3-.22.26-.24-.28-.2.23-.25-.3.21-.25Z"/><path class="cls-6" d="M111.63,57.5a1.67,1.67,0,0,1-.27.88c-.21.29-.41.43-.6.41a.64.64,0,0,1-.4-.3,1.46,1.46,0,0,1-.25-.54l.08.07.13.1.11.07.12.05.13,0a.62.62,0,0,0,.51-.26c.15-.19.23-.31.23-.37a1,1,0,0,0-.3-.6l.22-.46.14.2a1.06,1.06,0,0,1,.11.21.71.71,0,0,1,0,.26A1.13,1.13,0,0,1,111.63,57.5Z"/><path class="cls-6" d="M113,58.7c-.23.38-.48.56-.74.52a.94.94,0,0,1-.43-.25l-.22-.26a1,1,0,0,1-.15-.35.89.89,0,0,0,.28.21,1.15,1.15,0,0,0,.33.11,1,1,0,0,0,.4-.07,1.39,1.39,0,0,0,.37-.22,1.33,1.33,0,0,0,.21-.33H113a1.53,1.53,0,0,1-.45-.16c-.16-.09-.23-.19-.23-.29a1.89,1.89,0,0,1,.26-.85c.13-.21.25-.3.36-.29s.23.16.32.43a2.08,2.08,0,0,1,.1.64h.1l0,.53-.12,0A2,2,0,0,1,113,58.7Zm.08-1.2a.55.55,0,0,0-.07-.21.6.6,0,0,0-.14-.2.17.17,0,0,0-.12-.06.07.07,0,0,0-.06,0l-.06.05a.41.41,0,0,0-.05.09.31.31,0,0,0,0,.08c0,.06.06.11.18.17a.86.86,0,0,0,.26.09C113,57.54,113.07,57.53,113.07,57.5Z"/><path class="cls-6" d="M114.94,58.32l-1.64-.26,0-.52c.3,0,.45,0,.45,0l.12-1.22,0-.29.32-.29v.33l.15.19-.17.25-.09.95a.93.93,0,0,1,.26-.19A1.32,1.32,0,0,1,115,57a.62.62,0,0,1,.23.08.68.68,0,0,1,.26.68.83.83,0,0,1,0,.15h.11l0,.53-.23,0-.06-.1A.43.43,0,0,1,114.94,58.32Zm.33-.55c0-.09,0-.18-.18-.26a1.07,1.07,0,0,0-.33-.14.87.87,0,0,0-.27.07c-.29.13-.43.22-.44.26a2.51,2.51,0,0,0,.63.14C115.07,57.9,115.26,57.87,115.27,57.77Z"/><path class="cls-6" d="M117.68,58.84a1.76,1.76,0,0,1-.42-.16l-.24-.16a0,0,0,0,1,0,0h0a.94.94,0,0,1-.26.1.9.9,0,0,1-.35,0,1,1,0,0,1-.53-.24.49.49,0,0,1-.37.06h-.09l.06-.53q.41.09.45,0a.34.34,0,0,0,0-.15,1.31,1.31,0,0,0,0-.2l.3-.26a.11.11,0,0,1,0,.08v.11l0,.14a1.31,1.31,0,0,1,0,.15.81.81,0,0,1,0,.11.06.06,0,0,0,0,0s0,0,.05.06l.26.07.4.07a.17.17,0,0,0,.13,0,.37.37,0,0,0,0-.16.26.26,0,0,0,0-.13l.34-.31v.09s0,.12,0,.19a1.17,1.17,0,0,1-.13.3.68.68,0,0,0,.41.23h.14s0,0,0,0a1.07,1.07,0,0,0-.06-.41l.32-.29a2.06,2.06,0,0,1,0,.61,2.91,2.91,0,0,1-.1.63.11.11,0,0,1-.11,0Z"/><path class="cls-6" d="M119.26,58.54a3.47,3.47,0,0,1,0,.57c0,.22-.07.33-.11.35a1.66,1.66,0,0,1-.48,0l-.41-.05.12-.47h.13a.43.43,0,0,0,.25-.1l.31-.31a2.68,2.68,0,0,0-.26-.47,1.75,1.75,0,0,0-.26-.29l-.1.06a.68.68,0,0,1-.12-.21.61.61,0,0,1-.09-.29.45.45,0,0,1,.1-.17c.06-.07.11-.1.15-.1s.25.19.46.57a3.21,3.21,0,0,1,.16.37,1.52,1.52,0,0,1,.09.26s0,0,0-.13a2.66,2.66,0,0,0,.08-.33,4.5,4.5,0,0,0,.07-.85l.08-.08c.06-.07.12-.13.17-.2l0,.19.23.38-.3.32-.06-.06a4.43,4.43,0,0,1-.13.63A3.61,3.61,0,0,1,119.26,58.54Zm-.44-1.94-.06.15a1.05,1.05,0,0,0-.26.07l-.23.16v0a.25.25,0,0,1,.08-.17.27.27,0,0,1-.09-.21.24.24,0,0,1,0-.14.27.27,0,0,1,.1-.11.31.31,0,0,1,.13-.06.23.23,0,0,1,.14,0l.08,0-.07.15s0,0-.09,0h-.09l-.07,0a.1.1,0,0,0-.06,0,.09.09,0,0,0,0,.07.05.05,0,0,0,0,.05.13.13,0,0,0,.09,0h0ZM118.74,59l.37,0V59q0-.23,0-.24s0,0,0,0A1.85,1.85,0,0,1,118.74,59Z"/><path class="cls-6" d="M120.46,59l-.37.45.3-2.14.36-.4Z"/><path class="cls-6" d="M81.65,63.48V64l-.44.12.05-2,.56-.16,1.11,1.72-.46.13-.28-.44ZM82,63l-.23-.37-.19-.34h0c0,.12,0,.27,0,.38v.43Z"/><path class="cls-6" d="M82.71,61.69l.42-.11.38,1.54.76-.19.09.37-1.19.29Z"/><path class="cls-6" d="M85.51,62.53l0,.52-.45.09.18-2,.57-.11,1,1.79-.47.09-.25-.46Zm.42-.43-.21-.38-.17-.35h0c0,.12,0,.27,0,.39l0,.43Z"/><path class="cls-6" d="M87,62.28a1.05,1.05,0,0,0,.51,0c.2,0,.29-.13.26-.26s-.12-.17-.37-.21-.58-.19-.63-.47.17-.63.62-.71a1.23,1.23,0,0,1,.51,0l0,.37a1,1,0,0,0-.42,0c-.19,0-.26.14-.25.24s.14.16.41.2.55.22.6.49-.14.64-.67.74a1.24,1.24,0,0,1-.56,0Z"/><path class="cls-6" d="M88.68,60.83l-.52.09-.06-.37,1.48-.23.06.36-.53.09.25,1.56-.44.07Z"/><path class="cls-6" d="M90.29,60.22l.15,1.11c0,.34.19.49.41.46s.34-.21.29-.55L91,60.12l.43,0,.15,1.08c.08.6-.19.93-.69,1s-.81-.17-.9-.78l-.14-1.08Z"/><path class="cls-6" d="M91.85,60c.14,0,.35-.07.59-.1a1,1,0,0,1,.64.09.5.5,0,0,1,.23.39.54.54,0,0,1-.3.51h0c.15,0,.23.16.3.33a5.57,5.57,0,0,0,.22.54l-.45,0a2,2,0,0,1-.18-.43c-.08-.24-.17-.3-.36-.28h-.13l.09.77-.44,0Zm.53.79h.17c.22,0,.34-.15.32-.32s-.15-.26-.35-.23l-.2,0Z"/><path class="cls-6" d="M94.2,61.24l-.1.52-.45,0,.43-2,.58,0,.76,1.9-.47,0-.19-.49Zm.47-.37-.16-.4-.13-.37h0c0,.12,0,.27-.06.39l-.09.42Z"/><path class="cls-6" d="M96.75,59.61l1.19,0,0,.36-.75,0,0,.45.7,0v.36l-.7,0,0,.79-.44,0Z"/><path class="cls-6" d="M99.65,60.75a.71.71,0,0,1-.73.77.7.7,0,0,1-.76-.71.71.71,0,0,1,.75-.77A.69.69,0,0,1,99.65,60.75Zm-1,0c0,.24.11.42.3.42s.28-.18.27-.44-.09-.42-.29-.42S98.61,60.58,98.62,60.79Z"/><path class="cls-6" d="M101.33,60.74a.71.71,0,0,1-.74.76.7.7,0,0,1-.74-.73.71.71,0,0,1,.76-.75A.68.68,0,0,1,101.33,60.74Zm-1,0c0,.24.1.43.29.43s.28-.18.28-.43-.08-.43-.28-.43S100.31,60.55,100.31,60.76Z"/><path class="cls-6" d="M103,59.44l0,1.64v.42h-.39v-.2h0a.52.52,0,0,1-.45.23.65.65,0,0,1-.59-.75.67.67,0,0,1,.65-.74.41.41,0,0,1,.37.17h0v-.77Zm-.46,1.23a.25.25,0,0,0,0-.08.28.28,0,0,0-.25-.22c-.2,0-.31.18-.31.4s.11.39.29.4a.26.26,0,0,0,.26-.21.34.34,0,0,0,0-.1Z"/><path class="cls-6" d="M103.34,61.13a.81.81,0,0,0,.37.12c.14,0,.19,0,.2-.11s0-.11-.2-.17-.4-.28-.39-.44.24-.46.59-.45a1.16,1.16,0,0,1,.4.1l-.09.3a1,1,0,0,0-.3-.09c-.11,0-.17,0-.18.11s.05.1.23.17.37.25.36.46-.22.45-.63.43a1,1,0,0,1-.45-.12Z"/><path class="cls-6" d="M105.17,59.8l0,.38.31,0,0,.32-.31,0,0,.52c0,.17,0,.25.16.26h.13v.33a1.07,1.07,0,0,1-.29,0,.53.53,0,0,1-.33-.14.64.64,0,0,1-.1-.43l0-.58h-.19l0-.33.19,0v-.27Z"/><path class="cls-6" d="M107,61.27a4.12,4.12,0,0,0,0,.46l-.39,0v-.2h0a.54.54,0,0,1-.46.2c-.29,0-.48-.22-.45-.66l.06-.83.44,0-.06.77c0,.2,0,.33.2.34a.23.23,0,0,0,.23-.14s0-.05,0-.09l.06-.84.44,0Z"/><path class="cls-6" d="M108.25,61.85l.1-1.09-.45,0-.1,1.09-.44,0,.1-1.09-.18,0,0-.32.18,0v0a.59.59,0,0,1,.2-.44.57.57,0,0,1,.45-.12l.18,0-.09.32-.11,0c-.13,0-.18.09-.19.24v0l.45,0v0a.72.72,0,0,1,.22-.46.61.61,0,0,1,.41-.1,1,1,0,0,1,.23,0l0,.34-.14,0a.22.22,0,0,0-.23.23v.08l.29,0,0,.33-.28,0-.1,1.09Z"/><path class="cls-6" d="M110.23,60.47l-.53-.06,0-.37,1.49.19,0,.36-.53-.06-.19,1.57L110,62Z"/><path class="cls-6" d="M111.19,61.23c0-.2,0-.34,0-.46l.37,0,0,.26h0a.42.42,0,0,1,.43-.24l.09,0-.06.41-.12,0a.29.29,0,0,0-.33.18.3.3,0,0,0,0,.1l-.1.71-.44-.06Z"/><path class="cls-6" d="M113.32,62.17a2.73,2.73,0,0,0,0,.35l-.39-.07v-.14h0a.56.56,0,0,1-.43.11.44.44,0,0,1-.38-.51c0-.36.41-.48.9-.4v0c0-.08,0-.19-.23-.22a.74.74,0,0,0-.4,0l0-.29a1.15,1.15,0,0,1,.56,0,.55.55,0,0,1,.52.7Zm-.37-.39c-.23,0-.41,0-.44.16a.15.15,0,0,0,.15.19.24.24,0,0,0,.25-.12.19.19,0,0,0,0-.08Z"/><path class="cls-6" d="M115.33,60.78,115,62.4c0,.15-.06.32-.07.41l-.38-.07,0-.2h0a.5.5,0,0,1-.48.15.65.65,0,0,1-.47-.82.67.67,0,0,1,.76-.63.43.43,0,0,1,.34.22h0l.13-.75Zm-.66,1.15a.22.22,0,0,0,0-.08.27.27,0,0,0-.22-.26c-.2,0-.33.12-.37.34s0,.41.23.44a.26.26,0,0,0,.29-.16l0-.1Z"/><path class="cls-6" d="M115.3,62.88l.27-1.39.44.08-.28,1.4Zm.8-1.69a.23.23,0,0,1-.46-.09.21.21,0,0,1,.27-.17A.22.22,0,0,1,116.1,61.19Z"/><path class="cls-6" d="M116.27,62.09c0-.18.07-.32.09-.45l.37.08,0,.2h0a.51.51,0,0,1,.48-.13c.28.06.45.29.36.7l-.17.82-.43-.09.16-.77c0-.18,0-.31-.15-.35a.27.27,0,0,0-.26.12.3.3,0,0,0,0,.1l-.17.8-.43-.09Z"/><path class="cls-6" d="M119.08,63.5a.84.84,0,0,1-.36.57.94.94,0,0,1-.6,0,1.22,1.22,0,0,1-.47-.23l.16-.3a.9.9,0,0,0,.38.2.34.34,0,0,0,.44-.28l0-.09h0a.5.5,0,0,1-.42.09.62.62,0,0,1-.42-.81.67.67,0,0,1,.8-.58.44.44,0,0,1,.33.28h0l.06-.17.37.09c0,.09-.06.2-.11.41Zm-.28-.72s0-.06,0-.08a.26.26,0,0,0-.19-.25c-.16,0-.32.08-.38.33s0,.39.2.43a.24.24,0,0,0,.27-.12s0-.07,0-.11Z"/><path class="cls-2" d="M133.85,46.49l.42-.43.64.45-.47.46-.61-.42-.42.42-.63-.45.47-.46Zm2.24,3.76h-.46a.58.58,0,0,1-.46-.14,1.5,1.5,0,0,1-.22-.73.19.19,0,0,0-.08-.16l-.56.63h-.13a4.63,4.63,0,0,1-1-.27c-.17-.06-.26-.14-.26-.24a6.19,6.19,0,0,1,.44-1,1.44,1.44,0,0,1,1-.52l.34-.07,0-.41.58-.49v2.14c0,.22.1.33.28.33h.53Zm-1.23-1.31a4.2,4.2,0,0,0-.1-.84,2.88,2.88,0,0,0-1.28.58l.68.29a1.06,1.06,0,0,0,.43.08C134.78,49.05,134.88,49,134.86,48.94Z"/><path class="cls-2" d="M139.11,50.25h-3.22v-.87h2.17s.07,0,.07-.11a1,1,0,0,0-.19-.36,1.47,1.47,0,0,0-.34-.4l.59-.71a1.92,1.92,0,0,1,.48.81,2.66,2.66,0,0,1,.18.77h.26Zm-1.61,1,.42-.43.64.45-.46.46-.62-.42-.42.42-.62-.44.46-.46Z"/><path class="cls-2" d="M141.91,49.6c0,.43-.07.65-.21.65h-2.79v-.87h2.15c.05,0,.07,0,.07-.11a1.24,1.24,0,0,0-.23-.41c-.15-.22-.24-.34-.28-.34l.56-.72a1.77,1.77,0,0,1,.52.82A3.38,3.38,0,0,1,141.91,49.6Zm-.69-3a.75.75,0,0,0-.4-.06h-.16s-.11,0-.17.12a.35.35,0,0,0-.11.19s0,0,0,0,.22.14.48.14l.22,0,.5-.12-.08.4a3.3,3.3,0,0,0-.48.12,3.47,3.47,0,0,0-.56.3l-.26.17s-.05,0-.05,0a.63.63,0,0,1,.14-.29l.14-.19-.2-.06q-.18-.06-.18-.12a.92.92,0,0,1,.28-.69.85.85,0,0,1,.64-.37l.22,0a.83.83,0,0,0,.2,0Z"/><path class="cls-2" d="M143.61,49.66l-.69.87V47l.69-.78Z"/><path class="cls-2" d="M147.12,50.25l-.36.08-.57.11a4.48,4.48,0,0,1-.85.09,1,1,0,0,1-.6-.17c-.12-.06-.18-.22-.17-.47v-.15a2.12,2.12,0,0,1,.05-.32,1.88,1.88,0,0,1,.08-.3c0-.06,0-.08.07-.08h0l0,.21c0,.19.07.32.19.36a1.27,1.27,0,0,0,.47.09h.29l.41-.06c.34-.06.51-.1.51-.14a2.89,2.89,0,0,0-.22-.66,2.19,2.19,0,0,0-.45-.61l.45-.71a2.24,2.24,0,0,1,.52.83,4,4,0,0,1,.25,1h.25v.87h-.35Zm-1.47-4.16,1,.33-.36.65-.94-.33Z"/><path class="cls-2" d="M151.45,50.25h-.23a2.4,2.4,0,0,1-1.53-.45l-.42.19a4.84,4.84,0,0,1-1.34.26h-.66v-.87h.86a4.16,4.16,0,0,0,1.08-.18s0-.06,0-.07-.1-.16-.3-.28a1,1,0,0,0-.44-.18,1.73,1.73,0,0,0-.42,0,1.66,1.66,0,0,1,.23-.46,1.57,1.57,0,0,1,.37-.47,2.12,2.12,0,0,1,.83-.17,1.48,1.48,0,0,1,.46.08,1.74,1.74,0,0,1,.41.2,1.62,1.62,0,0,1,.26.22.47.47,0,0,1,.07.28,1.92,1.92,0,0,1-.42.75,1.35,1.35,0,0,0,.95.23h.2Zm-2.4-4.16,1,.33-.35.65-.95-.33Z"/><path class="cls-2" d="M153.74,47l-.26.46v2.7l-.17.08h-2.06v-.87h1.54V47.22l-.13-.58.68-.47.09.57Z"/><path class="cls-2" d="M155.34,49.66l-.69.87V47l.69-.78Z"/><path class="cls-2" d="M161.25,49.94s0,.1,0,.18,0,.12-.1.13l-.37.08-.56.11a4.56,4.56,0,0,1-.85.09,1,1,0,0,1-.6-.17c-.12-.06-.18-.22-.18-.47,0,0,0-.08,0-.15a2.12,2.12,0,0,1,0-.32,1.18,1.18,0,0,1,.08-.3c0-.06,0-.08.07-.08h0l0,.21c0,.19.07.32.18.36a1.35,1.35,0,0,0,.47.09h.3l.41-.06c.34-.06.51-.1.51-.14a2.63,2.63,0,0,0-.23-.66,2,2,0,0,0-.44-.61l.45-.71a2.37,2.37,0,0,1,.52.83A4.21,4.21,0,0,1,161.25,49.94Z"/><path class="cls-2" d="M163,49.66l-.7.87V47l.7-.78Z"/><path class="cls-2" d="M166.77,51.35a2,2,0,0,1-1.63,1,2.22,2.22,0,0,1-1-.32,4.36,4.36,0,0,1-.57-.37,1.46,1.46,0,0,1-.41-.53,2.6,2.6,0,0,0,.7.28,4.27,4.27,0,0,0,.78.11,3.3,3.3,0,0,0,.9-.21,2.47,2.47,0,0,0,.81-.45,1.82,1.82,0,0,0,.44-.58h-.13a4.27,4.27,0,0,1-1.07-.16c-.39-.11-.58-.25-.58-.43a2.51,2.51,0,0,1,.43-1.44c.27-.36.53-.55.79-.55s.56.21.81.63a2.42,2.42,0,0,1,.36,1h.22v.87h-.29A2.87,2.87,0,0,1,166.77,51.35Zm0-2a.73.73,0,0,0-.21-.33,1.09,1.09,0,0,0-.35-.3.77.77,0,0,0-.28-.07.3.3,0,0,0-.15,0,.41.41,0,0,0-.13.1.6.6,0,0,0-.09.15.4.4,0,0,0,0,.15c0,.09.15.16.46.23a4,4,0,0,0,.59.09C166.67,49.45,166.73,49.43,166.73,49.38Z"/><path class="cls-2" d="M170.74,50a1.17,1.17,0,0,1-.4.73,4,4,0,0,0-.49-.44,1.54,1.54,0,0,0-.61-.27,6.56,6.56,0,0,1-1.35.21h-.5v-.87H168a2,2,0,0,0,.66-.1v-2l-.24-.61.86-.52c0,.2,0,.34,0,.42a.63.63,0,0,0,0,.17.68.68,0,0,0,.38.39l-.32.44V49l1.29.87A.25.25,0,0,1,170.74,50Z"/><path class="cls-2" d="M172.44,49.66l-.7.87V47l.7-.78Z"/><path class="cls-2" d="M176.83,47.78a2.16,2.16,0,0,0,.23.22l.73.44c.34.22.52.37.53.47a1.11,1.11,0,0,1-.17.59,1.24,1.24,0,0,1-.31.42,3.76,3.76,0,0,1-1.73.56.9.9,0,0,1-.57-.16.52.52,0,0,1-.21-.44Q175.33,49.11,176.83,47.78Zm.69,1.63a5.66,5.66,0,0,0-1.12-.76c-.06,0-.15.11-.29.28a.84.84,0,0,0-.23.46.12.12,0,0,0,0,.09.75.75,0,0,0,.59.19,2.5,2.5,0,0,0,.66-.09C177.38,49.51,177.5,49.46,177.52,49.41ZM177,46.94l.42-.43.64.45-.47.46L177,47l-.42.42L176,47l.46-.46Z"/><path class="cls-2" d="M181.66,49.7a2.25,2.25,0,0,1-.49,1.49,1.84,1.84,0,0,1-1.33.78,1.51,1.51,0,0,1-1-.4,2.28,2.28,0,0,1-.65-.83l.18.09.32.14.27.1.28,0h.32a1.61,1.61,0,0,0,1.14-.53c.32-.33.48-.55.48-.65s-.28-.53-.81-.92l.45-.79.37.3a1.39,1.39,0,0,1,.27.32,1.11,1.11,0,0,1,.14.41A2.29,2.29,0,0,1,181.66,49.7Z"/><path class="cls-2" d="M184.18,50.25h-1.09a.74.74,0,0,1-.49-.12.46.46,0,0,1-.14-.36V46.69l.69-.52v3c0,.14.08.2.23.2h.8Z"/><path class="cls-2" d="M189.69,50.25H184v-.87h3.76a1.37,1.37,0,0,0-.29-.26,5.6,5.6,0,0,0-.62-.42,1.47,1.47,0,0,0-.76-.2,3.78,3.78,0,0,0-1,.19,2.45,2.45,0,0,1,.39-.48,1.33,1.33,0,0,1,1-.28,2.77,2.77,0,0,1,1.59.65c.22.18.44.33.65.47a3.16,3.16,0,0,0,.8.33h.2Zm-3.17.55,1,.33-.36.65-.94-.33Z"/><path class="cls-2" d="M192.71,50.25h-3.22v-.87h2.17c.05,0,.07,0,.07-.11a1,1,0,0,0-.19-.36,1.31,1.31,0,0,0-.34-.4l.59-.71a1.92,1.92,0,0,1,.48.81,2.66,2.66,0,0,1,.18.77h.26Zm-1.6-3.4.42-.43.64.45-.47.46-.61-.42-.42.42-.63-.45.46-.46Z"/><path class="cls-2" d="M195,47l-.26.46v2.7l-.17.08h-2.06v-.87h1.54V47.22l-.13-.58.68-.47.09.57Z"/><path class="cls-1" d="M137.35,31.36a3.42,3.42,0,0,0,.53.57l1.61,1.16c.76.55,1.16,1,1.18,1.2a3.23,3.23,0,0,1-.38,1.52,3.31,3.31,0,0,1-.68,1.1,6.75,6.75,0,0,1-1.5.85,6,6,0,0,1-2.35.6,1.85,1.85,0,0,1-1.28-.42,1.44,1.44,0,0,1-.47-1.13Q134,34.83,137.35,31.36Zm1.54,4.23a12.72,12.72,0,0,0-2.5-2q-.18.06-.63.72a2.43,2.43,0,0,0-.53,1.2.36.36,0,0,0,.08.24,1.56,1.56,0,0,0,1.32.48,4.75,4.75,0,0,0,1.46-.24C138.58,35.86,138.85,35.72,138.89,35.59Zm-1.07-6.4.94-1.12,1.42,1.17-1,1.19-1.36-1.09-.93,1.09-1.4-1.15,1-1.19Z"/><path class="cls-1" d="M148.11,36.33a6.48,6.48,0,0,1-1.1,3.86c-1,1.36-2,2-2.95,2a3.15,3.15,0,0,1-2.18-1A5.93,5.93,0,0,1,140.43,39l.4.23.72.37a3.73,3.73,0,0,0,1.21.37,4.07,4.07,0,0,0,.72,0A3.39,3.39,0,0,0,146,38.68,4.32,4.32,0,0,0,147.08,37c0-.57-.61-1.37-1.79-2.38l1-2,.81.78a3.63,3.63,0,0,1,.61.83,3.19,3.19,0,0,1,.32,1.07A8.88,8.88,0,0,1,148.11,36.33Z"/><path class="cls-1" d="M155.59,40.62Q154,43.26,152,43.26a4.62,4.62,0,0,1-2.3-.82,14.47,14.47,0,0,1-1.26-1,3.89,3.89,0,0,1-.92-1.38,5.41,5.41,0,0,0,1.56.72,6.43,6.43,0,0,0,1.73.28,5.31,5.31,0,0,0,2-.54,5.83,5.83,0,0,0,1.82-1.15,5.12,5.12,0,0,0,1-1.51h-.29a7.69,7.69,0,0,1-2.4-.42c-.85-.27-1.28-.64-1.28-1.09a7.32,7.32,0,0,1,1-3.73c.6-1,1.18-1.42,1.75-1.42s1.25.54,1.8,1.61a6.92,6.92,0,0,1,.81,2.64h.48v2.26h-.63A8.08,8.08,0,0,1,155.59,40.62Zm-.08-5.11a1.93,1.93,0,0,0-.46-.86,2.74,2.74,0,0,0-.78-.77,1.42,1.42,0,0,0-.63-.17.55.55,0,0,0-.32.1,1.28,1.28,0,0,0-.29.28,1.38,1.38,0,0,0-.2.38,1.18,1.18,0,0,0-.08.39c0,.23.34.43,1,.59a7.06,7.06,0,0,0,1.33.25C155.37,35.7,155.51,35.64,155.51,35.51Z"/><path class="cls-1" d="M165.52,37.76H157l0-2.26c1.54,0,2.32-.12,2.32-.36V29.92L159,28.7l1.52-1.44.12,1.4.84.71-.77,1.19v4.05a5.37,5.37,0,0,1,1.28-1Q164.2,32,165.13,32a3.39,3.39,0,0,1,1.2.17,2.59,2.59,0,0,1,1.67,2.7,5,5,0,0,1-.11.64h.55v2.26h-1.19l-.34-.35A3.07,3.07,0,0,1,165.52,37.76ZM167,35.19c0-.38-.35-.7-1.07-1a5.34,5.34,0,0,0-1.72-.36,4.18,4.18,0,0,0-1.37.44c-1.42.75-2.12,1.22-2.12,1.42a15,15,0,0,0,3.3.14C166,35.87,167,35.65,167,35.19Z"/><path class="cls-1" d="M179.88,37.86a9.8,9.8,0,0,1-2.24-.33,13.16,13.16,0,0,1-1.31-.48c-.06,0-.08,0-.08,0h0a4.54,4.54,0,0,1-1.26.64,6,6,0,0,1-1.83.16,5.45,5.45,0,0,1-2.84-.58,3.36,3.36,0,0,1-1.85.54H168V35.5c1.43,0,2.21,0,2.32-.2a1.28,1.28,0,0,0,.11-.67,4.24,4.24,0,0,0-.06-.84l1.38-1.36a2.12,2.12,0,0,1,.05.33,3.78,3.78,0,0,1,0,.5,3.07,3.07,0,0,1-.07.61c0,.25-.08.47-.13.67s-.1.35-.14.47a.73.73,0,0,0-.07.25c0,.06.12.12.32.18a6,6,0,0,0,1.38.1h2.08a.82.82,0,0,0,.62-.2,1.16,1.16,0,0,0,.2-.7,1.14,1.14,0,0,0-.06-.55l1.53-1.57a1.24,1.24,0,0,1,.06.37,6,6,0,0,1-.08.86,5.22,5.22,0,0,1-.49,1.34,3.67,3.67,0,0,0,2.22.67,1.76,1.76,0,0,0,.69-.14c.13-.07.19-.15.19-.24a4.07,4.07,0,0,0-.51-1.69L181,32.25a7.94,7.94,0,0,1,.34,2.56,9.55,9.55,0,0,1-.19,2.75.65.65,0,0,1-.5.25A6.73,6.73,0,0,1,179.88,37.86Z"/><path class="cls-1" d="M184.31,27.45l-.22.69a5.12,5.12,0,0,0-1.29.55l-1.07.86a.12.12,0,0,1,0-.09,1.11,1.11,0,0,1,.33-.79c-.43-.27-.64-.53-.64-.78a1.37,1.37,0,0,1,.17-.65,1.94,1.94,0,0,1,.44-.55,2.18,2.18,0,0,1,.63-.37,1.84,1.84,0,0,1,.74-.14,1.25,1.25,0,0,1,.4.05l-.25.69q0-.12-.51-.12a1.23,1.23,0,0,0-.42.07,1.21,1.21,0,0,0-.38.18,1.07,1.07,0,0,0-.26.26.56.56,0,0,0-.1.33c0,.07.06.13.18.2a1.06,1.06,0,0,0,.47.09l.19,0Zm3.47,7.79a8.65,8.65,0,0,1,.33,2.41c0,.93-.15,1.44-.31,1.54a9.07,9.07,0,0,1-2.48.42,19.72,19.72,0,0,1-2.1.16l.29-2.06a3.1,3.1,0,0,0,.69-.1,2.33,2.33,0,0,0,1.18-.61c.4-.4.86-.94,1.39-1.59a9.66,9.66,0,0,0-1.64-1.75,8,8,0,0,0-1.53-1l-.45.35a4.76,4.76,0,0,1-.76-.78c-.45-.55-.67-.92-.64-1.12a1.77,1.77,0,0,1,.43-.81c.26-.35.49-.54.68-.56.51-.07,1.41.6,2.71,2a11,11,0,0,1,1.06,1.41c.39.59.61.93.65,1s.06-.11.16-.57a7.35,7.35,0,0,0,.2-1.48,18.33,18.33,0,0,0-.2-3.62l.34-.4a11,11,0,0,0,.75-1l.37.78,1.41,1.38L189,30.85l-.32-.19a15.42,15.42,0,0,1-.29,2.75A8.84,8.84,0,0,1,187.78,35.24Zm-2.32,2.49,1.9-.21v-.38c0-.66-.1-1-.29-1s-.1.06-.16.19A8.05,8.05,0,0,1,185.46,37.73Z"/><path class="cls-1" d="M194.25,36.24l-1.54,2.24V29.21l1.54-2Z"/><path class="cls-2" d="M6,45H8.93v.84H7.11v1h1.7v.83H7.11v1.83H6Z"/><path class="cls-2" d="M13.28,47.85a1.69,1.69,0,0,1-1.82,1.75,1.65,1.65,0,0,1-1.78-1.69,1.69,1.69,0,0,1,1.85-1.76A1.64,1.64,0,0,1,13.28,47.85Zm-2.49,0c0,.57.24,1,.7,1s.69-.4.69-1-.2-1-.69-1S10.79,47.39,10.79,47.88Z"/><path class="cls-2" d="M17.72,47.85A1.69,1.69,0,0,1,15.9,49.6a1.65,1.65,0,0,1-1.78-1.69A1.69,1.69,0,0,1,16,46.15,1.64,1.64,0,0,1,17.72,47.85Zm-2.49,0c0,.57.24,1,.7,1s.69-.4.69-1-.2-1-.69-1S15.23,47.39,15.23,47.88Z"/><path class="cls-2" d="M22.1,44.75v3.8c0,.37,0,.76,0,1h-.95l-.05-.48h0A1.2,1.2,0,0,1,20,49.6a1.53,1.53,0,0,1-1.47-1.69,1.59,1.59,0,0,1,1.55-1.76,1.06,1.06,0,0,1,.9.37h0V44.75ZM21,47.63a.65.65,0,0,0,0-.19.63.63,0,0,0-.62-.5c-.5,0-.74.42-.74.94s.29.91.73.91A.63.63,0,0,0,21,48.3a1.94,1.94,0,0,0,0-.24Z"/><path class="cls-2" d="M23.3,48.64a2.27,2.27,0,0,0,.93.24c.32,0,.46-.1.46-.27s-.11-.25-.5-.38c-.72-.23-1-.6-1-1,0-.62.55-1.09,1.4-1.09a2.39,2.39,0,0,1,1,.2l-.19.71a1.73,1.73,0,0,0-.74-.19c-.26,0-.41.1-.41.26s.13.24.56.39c.65.21.92.53.93,1s-.5,1.07-1.49,1.07a2.67,2.67,0,0,1-1.12-.23Z"/><path class="cls-2" d="M27.92,45.35v.89h.77V47h-.77v1.19c0,.4.11.58.42.58a1.39,1.39,0,0,0,.32,0v.78a2.3,2.3,0,0,1-.69.09,1.15,1.15,0,0,1-.81-.29,1.29,1.29,0,0,1-.3-1V47h-.46v-.75h.46v-.62Z"/><path class="cls-2" d="M32.91,48.47c0,.43,0,.78,0,1.06H32l0-.47h0a1.22,1.22,0,0,1-1.08.54c-.7,0-1.21-.41-1.21-1.43V46.24h1.07V48c0,.48.16.77.54.77a.58.58,0,0,0,.54-.36.51.51,0,0,0,0-.22v-2h1.07Z"/><path class="cls-2" d="M34.25,49.53V47h-.46v-.75h.46v-.13A1.51,1.51,0,0,1,34.68,45a1.48,1.48,0,0,1,1-.33,2.57,2.57,0,0,1,.56.07l0,.79a1.06,1.06,0,0,0-.34-.05c-.36,0-.5.26-.5.59v.17H36V47h-.69v2.54Z"/><path class="cls-2" d="M37,49.53V47h-.46v-.75H37v-.13a1.31,1.31,0,0,1,1.39-1.44,2.66,2.66,0,0,1,.56.07l0,.79a1.13,1.13,0,0,0-.35-.05c-.35,0-.5.26-.5.59v.17h.69V47h-.68v2.54Z"/><path class="cls-2" d="M42.1,45.85H40.81V45h3.65v.86H43.17v3.68H42.1Z"/><path class="cls-2" d="M45,47.32c0-.49,0-.8,0-1.08h.92l0,.6h0a1,1,0,0,1,.93-.69l.23,0v1a1.23,1.23,0,0,0-.29,0,.69.69,0,0,0-.74.52,1.64,1.64,0,0,0,0,.23v1.67H45Z"/><path class="cls-2" d="M50.79,48.73a4.27,4.27,0,0,0,.06.8h-1l-.06-.33h0a1.29,1.29,0,0,1-1,.4,1,1,0,0,1-1.11-1c0-.85.8-1.26,2-1.26v0c0-.18-.1-.43-.62-.43a2.09,2.09,0,0,0-1,.25L48,46.45a2.9,2.9,0,0,1,1.34-.3,1.31,1.31,0,0,1,1.5,1.43Zm-1-.76c-.57,0-1,.13-1,.52a.38.38,0,0,0,.42.39.6.6,0,0,0,.56-.37,1.1,1.1,0,0,0,0-.18Z"/><path class="cls-2" d="M55.34,44.75v3.8c0,.37,0,.76,0,1h-.95l-.05-.48h0a1.2,1.2,0,0,1-1.08.55,1.53,1.53,0,0,1-1.47-1.69,1.59,1.59,0,0,1,1.55-1.76,1.06,1.06,0,0,1,.9.37h0V44.75Zm-1.07,2.88a.65.65,0,0,0,0-.19.63.63,0,0,0-.62-.5c-.5,0-.74.42-.74.94s.29.91.73.91a.63.63,0,0,0,.63-.49,1.94,1.94,0,0,0,0-.24Z"/><path class="cls-2" d="M57.66,45.32a.53.53,0,0,1-.58.51.51.51,0,1,1,.58-.51Zm-1.11,4.21V46.24h1.07v3.29Z"/><path class="cls-2" d="M58.84,47.29c0-.41,0-.76,0-1h.93l0,.45h0a1.25,1.25,0,0,1,1.06-.53c.71,0,1.24.45,1.24,1.42v2H61V47.7c0-.42-.15-.71-.54-.71a.6.6,0,0,0-.55.38.72.72,0,0,0,0,.26v1.9H58.84Z"/><path class="cls-2" d="M66.58,49.05a1.81,1.81,0,0,1-.53,1.48,2.14,2.14,0,0,1-1.39.41,2.88,2.88,0,0,1-1.24-.25l.21-.78a2.18,2.18,0,0,0,1,.25.8.8,0,0,0,.89-.87v-.21h0a1.13,1.13,0,0,1-.93.42,1.47,1.47,0,0,1-1.46-1.6,1.6,1.6,0,0,1,1.57-1.74,1.05,1.05,0,0,1,.94.47h0l0-.39h.93c0,.21,0,.49,0,1Zm-1.07-1.47a1.23,1.23,0,0,0,0-.19.58.58,0,0,0-.58-.45c-.39,0-.7.33-.7.93s.25.88.69.88a.6.6,0,0,0,.58-.41,1.27,1.27,0,0,0,0-.28Z"/><path class="cls-1" d="M7.52,37.76l-.59,2.16H5l2.52-8.41H10l2.59,8.41h-2L9.9,37.76Zm2.11-1.42-.52-1.79c-.15-.5-.3-1.12-.42-1.62h0c-.13.5-.25,1.14-.38,1.62l-.5,1.79Z"/><path class="cls-1" d="M13.8,31.51h1.87v6.81H19v1.6H13.8Z"/><path class="cls-1" d="M24.73,37.76l-.59,2.16H22.21l2.52-8.41h2.46l2.59,8.41h-2l-.64-2.16Zm2.11-1.42-.52-1.79c-.15-.5-.29-1.12-.42-1.62h0c-.12.5-.25,1.14-.38,1.62L25,36.34Z"/><path class="cls-1" d="M31.06,38a4.71,4.71,0,0,0,2.08.53c.86,0,1.31-.37,1.31-.92s-.39-.82-1.39-1.17c-1.37-.5-2.29-1.27-2.29-2.5,0-1.43,1.2-2.52,3.14-2.52a4.75,4.75,0,0,1,2.12.43l-.42,1.52a3.85,3.85,0,0,0-1.72-.4c-.81,0-1.21.39-1.21.81s.46.78,1.54,1.19c1.46.55,2.14,1.32,2.14,2.51,0,1.41-1.06,2.61-3.33,2.61a5.33,5.33,0,0,1-2.35-.53Z"/><path class="cls-1" d="M39.37,33.1H37.14V31.51h6.37V33.1H41.25v6.82H39.37Z"/><path class="cls-1" d="M46.5,31.51v4.83c0,1.46.55,2.2,1.5,2.2s1.52-.7,1.52-2.2V31.51H51.4v4.72c0,2.59-1.3,3.83-3.46,3.83s-3.31-1.19-3.31-3.86V31.51Z"/><path class="cls-1" d="M53.14,31.62a16,16,0,0,1,2.5-.18,4.14,4.14,0,0,1,2.68.67,2.11,2.11,0,0,1,.78,1.77,2.22,2.22,0,0,1-1.47,2.06v0a2.07,2.07,0,0,1,1.11,1.56c.26,1,.5,2.06.66,2.38H57.49a10.24,10.24,0,0,1-.57-2c-.23-1.06-.59-1.33-1.37-1.35H55v3.31H53.14ZM55,35.24h.74c.93,0,1.49-.48,1.49-1.21s-.52-1.16-1.38-1.16a3.59,3.59,0,0,0-.85.06Z"/><path class="cls-1" d="M62.6,37.76,62,39.92H60.08l2.52-8.41h2.46l2.59,8.41h-2L65,37.76Zm2.11-1.42-.52-1.79c-.15-.5-.3-1.12-.42-1.62h0c-.13.5-.25,1.14-.38,1.62l-.5,1.79Z"/><polygon class="cls-4" points="98.02 55.8 98.09 57.52 97.18 57.37 97.25 57.13 97.29 55.33 98.02 55.8"/></svg>